# xmcd CD database file
#
# Track frame offsets:
#	150
#	10072
#	28395
#	43532
#	63082
#	75412
#	92025
#	104877
#	125275
#	142760
#	165777
#	178147
#
# Disc length: 2799 seconds
#
# Revision: 0
# Processed by: cddbd v1.4PL0 Copyright (c) Steve Scherf et al.
# Submitted via: CDex 1.40Beta9
#
DISCID=8e0aed0c
DTITLE=Jesse Kalu - One In Spirit
DYEAR=1998
DGENRE=Native American
TTITLE0=Sweat Song
TTITLE1=Twin Flame
TTITLE2=Spirit
TTITLE3=Healing Staff
TTITLE4=Storm
TTITLE5=Neni
TTITLE6=Grandfather
TTITLE7=Spirit
TTITLE8=Healing Staff
TTITLE9=Neni
TTITLE10=Winged Hearts
TTITLE11=Grandfather
EXTD=YEAR: 1998 ID3G: 64
EXTT0=
EXTT1=
EXTT2=
EXTT3=
EXTT4=
EXTT5=
EXTT6=
EXTT7=
EXTT8=
EXTT9=
EXTT10=
EXTT11=
PLAYORDER=
